<?xml version="1.0" encoding="utf-8"?>
<!-- Generator: Adobe Illustrator 27.9.1, SVG Export Plug-In . SVG Version: 6.00 Build 0)  -->
<svg version="1.1" id="Layer_1" xmlns:xodm="http://www.corel.com/coreldraw/odm/2003"
	 xmlns="http://www.w3.org/2000/svg" xmlns:xlink="http://www.w3.org/1999/xlink" x="0px" y="0px" viewBox="0 0 341.8 341.8"
	 style="enable-background:new 0 0 341.8 341.8;" xml:space="preserve">
<path d="M142.1,229.5c29.1-18.8,57.5-37.2,86.2-55.8c-0.9-0.7-1.3-1.1-1.7-1.4c-13.2-8.6-26.5-17.1-39.7-25.7
	c-12.9-8.4-25.7-16.8-38.5-25.2c-1.9-1.3-4-2.3-6.2-3.5C142.1,155.2,142.1,191.9,142.1,229.5z M-2.1,191.9c0-14,0-27.9,0-41.9
	c0.4-1,1.1-2.1,1.1-3.1c1.4-18,2.5-36.1,4.1-54.2c1.5-17.2,15.7-30.5,32.2-32.4C52.2,58.4,69.1,57,86,55.5c30-2.6,60-3.3,90.1-3.3
	c43.7,0.1,87.3,3.1,130.7,7.9c17,1.9,31.1,18.1,32.3,31.4c1.7,18,2.8,36.1,4.1,54.1c0.1,1.4,0.4,2.8,0.6,4.2c0,14,0,27.9,0,41.9
	c-0.2,1.1-0.4,2.1-0.5,3.2c-0.9,14.3-1.7,28.5-2.8,42.8c-0.8,9.6-1.3,19.2-7.6,27.5c-6.8,9-15.1,15-26.4,16.3
	c-14.1,1.5-28.2,2.9-42.3,4.1c-31.4,2.8-62.9,3.9-94.4,3.9c-45.2,0-90.2-2.8-135-8.1c-16.4-2-30.4-15.3-31.8-32.3
	c-1.5-18-2.7-36.1-4.1-54.2C-1,193.9-1.7,192.9-2.1,191.9z"/>
</svg>
