<?xml version="1.0" encoding="UTF-8"?>
<!DOCTYPE svg PUBLIC "-//W3C//DTD SVG 1.1//EN" "http://www.w3.org/Graphics/SVG/1.1/DTD/svg11.dtd">
<!-- Creator: CorelDRAW 2020 (64-Bit) -->
<svg xmlns="http://www.w3.org/2000/svg" xml:space="preserve" width="12.0591cm" height="12.0591cm" version="1.1" style="shape-rendering:geometricPrecision; text-rendering:geometricPrecision; image-rendering:optimizeQuality; fill-rule:evenodd; clip-rule:evenodd"
viewBox="0 0 12059.1 12059.1"
 xmlns:xlink="http://www.w3.org/1999/xlink"
 xmlns:xodm="http://www.corel.com/coreldraw/odm/2003">
 <defs>
  <style type="text/css">
   <![CDATA[
    .fil0 {fill:black;fill-rule:nonzero}
   ]]>
  </style>
 </defs>
 <g id="Layer_x0020_1">
  <metadata id="CorelCorpID_0Corel-Layer"/>
  <path class="fil0" d="M10759.87 7.17l-9475.02 0c-713.44,0 -1292.03,578.59 -1292.03,1292.05l0 9475c0,713.46 578.59,1292.05 1292.05,1292.05l3694.43 0.01 0 -4099.83 -1695.8 0 0 -1929.72 1695.8 0 0 -1470.78c0,-1672.93 995.96,-2597.02 2521.37,-2597.02 730.55,0 1494.47,130.29 1494.47,130.29l0 1641.97 -841.7 0c-829.34,0 -1088.01,514.67 -1088.01,1042.52l0 1253.02 1851.39 0 -296.09 1929.72 -1555.3 0 0 4099.83 3694.44 0c713.46,-0.01 1292.05,-578.6 1292.05,-1292.06l0 -9475c0,-713.46 -578.59,-1292.05 -1292.05,-1292.05z"/>
 </g>
</svg>
