<?xml version="1.0" encoding="UTF-8"?>
<!DOCTYPE svg PUBLIC "-//W3C//DTD SVG 1.1//EN" "http://www.w3.org/Graphics/SVG/1.1/DTD/svg11.dtd">
<!-- Creator: CorelDRAW 2020 (64-Bit) -->
<svg xmlns="http://www.w3.org/2000/svg" xml:space="preserve" width="12.0591cm" height="12.0591cm" version="1.1" style="shape-rendering:geometricPrecision; text-rendering:geometricPrecision; image-rendering:optimizeQuality; fill-rule:evenodd; clip-rule:evenodd"
viewBox="0 0 12059.1 12059.1"
 xmlns:xlink="http://www.w3.org/1999/xlink"
 xmlns:xodm="http://www.corel.com/coreldraw/odm/2003">
 <defs>
  <style type="text/css">
   <![CDATA[
    .fil0 {fill:black;fill-rule:nonzero}
   ]]>
  </style>
 </defs>
 <g id="Layer_x0020_1">
  <metadata id="CorelCorpID_0Corel-Layer"/>
  <path class="fil0" d="M6023.73 2945.63c-1711.01,0 -3091.1,1380.1 -3091.1,3091.1 0,1711 1380.1,3091.1 3091.1,3091.1 1711,0 3091.1,-1380.09 3091.1,-3091.1 0,-1711.01 -1380.1,-3091.1 -3091.1,-3091.1zm0 5100.73c-1105.7,0 -2009.62,-901.23 -2009.62,-2009.62 0,-1108.38 901.23,-2009.62 2009.62,-2009.62 1108.38,0 2009.62,901.24 2009.62,2009.62 0,1108.39 -903.93,2009.62 -2009.62,2009.62zm3938.53 -5227.18c0,400.85 -322.84,720.99 -721,720.99 -400.84,0 -720.99,-322.83 -720.99,-720.99 0,-398.15 322.84,-720.99 720.99,-720.99 398.16,0 721,322.84 721,720.99zm2047.28 731.75c-45.73,-965.8 -266.33,-1821.3 -973.87,-2526.15 -704.86,-704.85 -1560.35,-925.45 -2526.16,-973.88 -995.39,-56.49 -3978.89,-56.49 -4974.28,0 -963.11,45.74 -1818.62,266.34 -2526.16,971.19 -707.53,704.85 -925.44,1560.35 -973.87,2526.15 -56.5,995.39 -56.5,3978.89 0,4974.29 45.73,965.8 266.33,1821.3 973.87,2526.15 707.55,704.85 1560.35,925.45 2526.16,973.88 995.39,56.49 3978.89,56.49 4974.28,0 965.81,-45.74 1821.3,-266.34 2526.16,-973.88 704.85,-704.85 925.44,-1560.35 973.87,-2526.15 56.5,-995.4 56.5,-3976.2 0,-4971.6zm-1285.94 6039.64c-209.84,527.29 -616.07,933.52 -1146.04,1146.04 -793.63,314.76 -2676.81,242.13 -3553.83,242.13 -877.02,0 -2762.9,69.95 -3553.83,-242.13 -527.29,-209.83 -933.52,-616.06 -1146.04,-1146.04 -314.76,-793.63 -242.13,-2676.81 -242.13,-3553.83 0,-877.02 -69.95,-2762.9 242.13,-3553.83 209.83,-527.29 616.06,-933.52 1146.04,-1146.04 793.63,-314.76 2676.81,-242.13 3553.83,-242.13 877.02,0 2762.9,-69.95 3553.83,242.13 527.29,209.84 933.52,616.07 1146.04,1146.04 314.76,793.63 242.13,2676.81 242.13,3553.83 0,877.02 72.63,2762.9 -242.13,3553.83z"/>
 </g>
</svg>
