<?xml version="1.0" encoding="utf-8"?>
<!-- Generator: Adobe Illustrator 27.9.1, SVG Export Plug-In . SVG Version: 6.00 Build 0)  -->
<svg version="1.1" id="Layer_1" xmlns:xodm="http://www.corel.com/coreldraw/odm/2003"
	 xmlns="http://www.w3.org/2000/svg" xmlns:xlink="http://www.w3.org/1999/xlink" x="0px" y="0px" viewBox="0 0 341.8 341.8"
	 style="enable-background:new 0 0 341.8 341.8;" xml:space="preserve">
<g id="XMLID_468_">
	<path id="XMLID_469_" d="M252.9,196.4c-0.7-0.3-25.6-12.6-30-14.2c-1.8-0.6-3.7-1.3-5.8-1.3c-3.4,0-6.2,1.7-8.4,5
		c-2.5,3.7-10,12.5-12.4,15.1c-0.3,0.3-0.7,0.8-1,0.8c-0.2,0-4.1-1.6-5.2-2.1c-26.7-11.6-47-39.5-49.8-44.2c-0.4-0.7-0.4-1-0.4-1
		c0.1-0.4,1-1.3,1.5-1.7c1.4-1.3,2.8-3.1,4.3-4.8c0.7-0.8,1.3-1.6,2-2.4c2.1-2.4,3-4.3,4-6.4l0.6-1.1c2.6-5.2,0.4-9.5-0.3-10.9
		c-0.6-1.2-11.1-26.6-12.2-29.2c-2.7-6.4-6.2-9.4-11.2-9.4c-0.5,0,0,0-1.9,0.1c-2.3,0.1-15.1,1.8-20.7,5.3
		c-6,3.8-16.1,15.8-16.1,36.9c0,19,12.1,37,17.2,43.8c0.1,0.2,0.4,0.5,0.7,1c19.8,29,44.6,50.4,69.6,60.5
		c24.1,9.6,35.6,10.8,42.1,10.8c0,0,0,0,0,0c2.7,0,4.9-0.2,6.8-0.4l1.2-0.1c8.3-0.7,26.7-10.2,30.8-21.8c3.3-9.1,4.1-19.1,2-22.7
		C258.8,199.2,256.2,198,252.9,196.4z"/>
	<path id="XMLID_470_" d="M174,0C81.4,0,6.1,74.8,6.1,166.6c0,29.7,8,58.8,23,84.3L0.2,336c-0.5,1.6-0.1,3.3,1,4.5
		c0.8,0.9,2,1.3,3.2,1.3c0.4,0,0.9-0.1,1.3-0.2l88.7-28.2c24.3,13,51.7,19.8,79.5,19.8c92.6,0,167.9-74.7,167.9-166.6
		C341.8,74.8,266.5,0,174,0z M174,298.5c-26.1,0-51.4-7.5-73.2-21.8c-0.7-0.5-1.6-0.7-2.4-0.7c-0.5,0-0.9,0.1-1.3,0.2l-44.4,14.1
		L66.9,248c0.5-1.4,0.2-2.9-0.6-4C49.7,221.3,41,194.6,41,166.6c0-72.7,59.7-131.9,133-131.9c73.3,0,133,59.2,133,131.9
		C306.9,239.4,247.3,298.5,174,298.5z"/>
</g>
</svg>
